<svg xmlns="http://www.w3.org/2000/svg" viewBox="0 0 2350 1950">
  <defs>
    <style>
      .entity-box { fill: #4A90E2; stroke: #2E5C8A; stroke-width: 2; }
      .entity-title { fill: white; font-family: Arial, sans-serif; font-size: 15px; font-weight: bold; }
      .entity-attr { fill: #333; font-family: Arial, sans-serif; font-size: 11px; }
      .entity-bg { fill: #F8F9FA; stroke: #2E5C8A; stroke-width: 2; }
      .relationship { stroke: #666; stroke-width: 1.5; fill: none; }
      .relationship-label { fill: #666; font-family: Arial, sans-serif; font-size: 10px; }
      .pk { fill: #FFD700; font-weight: bold; }
      .fk { fill: #87CEEB; }
      .header { fill: #2E5C8A; font-family: Arial, sans-serif; font-size: 26px; font-weight: bold; }
      .subheader { fill: #555; font-family: Arial, sans-serif; font-size: 13px; }
      .section-title { fill: #E74C3C; font-family: Arial, sans-serif; font-size: 16px; font-weight: bold; }
    </style>
    
    <marker id="arrowhead" markerWidth="8" markerHeight="8" refX="7" refY="3" orient="auto">
      <polygon points="0 0, 8 3, 0 6" fill="#666" />
    </marker>
  </defs>
  
  <!-- Title -->
  <text x="1700" y="35" text-anchor="middle" class="header">JOHN HENRY FASHION E-COMMERCE - ERD</text>
  <text x="1700" y="55" text-anchor="middle" class="subheader">Complete Entity Relationship Diagram</text>
  
  <!-- ROW 1: USER & AUTHENTICATION -->
  <text x="80" y="95" class="section-title">USER AND AUTH</text>
  
  <!-- AspNetUsers -->
  <rect x="80" y="110" width="280" height="35" class="entity-box" rx="4"/>
  <text x="220" y="132" text-anchor="middle" class="entity-title">AspNetUsers</text>
  <rect x="80" y="145" width="280" height="150" class="entity-bg" rx="4"/>
  <text x="90" y="162" class="entity-attr pk">Id (PK)</text>
  <text x="90" y="177" class="entity-attr">UserName, Email</text>
  <text x="90" y="192" class="entity-attr">PasswordHash</text>
  <text x="90" y="207" class="entity-attr">PhoneNumber</text>
  <text x="90" y="222" class="entity-attr">FirstName, LastName</text>
  <text x="90" y="237" class="entity-attr">Avatar, IsActive</text>
  <text x="90" y="252" class="entity-attr">CreatedAt</text>
  <text x="90" y="267" class="entity-attr">UpdatedAt</text>
  
  <!-- Addresses -->
  <rect x="400" y="110" width="240" height="35" class="entity-box" rx="4"/>
  <text x="520" y="132" text-anchor="middle" class="entity-title">Addresses</text>
  <rect x="400" y="145" width="240" height="120" class="entity-bg" rx="4"/>
  <text x="410" y="162" class="entity-attr pk">Id (PK)</text>
  <text x="410" y="177" class="entity-attr fk">UserId (FK)</text>
  <text x="410" y="192" class="entity-attr">Type, Address1</text>
  <text x="410" y="207" class="entity-attr">City, Country</text>
  <text x="410" y="222" class="entity-attr">PostalCode</text>
  <text x="410" y="237" class="entity-attr">IsDefault</text>
  
  <!-- SecurityLogs -->
  <rect x="680" y="110" width="240" height="35" class="entity-box" rx="4"/>
  <text x="800" y="132" text-anchor="middle" class="entity-title">SecurityLogs</text>
  <rect x="680" y="145" width="240" height="105" class="entity-bg" rx="4"/>
  <text x="690" y="162" class="entity-attr pk">Id (PK)</text>
  <text x="690" y="177" class="entity-attr fk">UserId (FK)</text>
  <text x="690" y="192" class="entity-attr">EventType</text>
  <text x="690" y="207" class="entity-attr">IpAddress</text>
  <text x="690" y="222" class="entity-attr">CreatedAt</text>
  
  <!-- Notifications -->
  <rect x="960" y="110" width="240" height="35" class="entity-box" rx="4"/>
  <text x="1080" y="132" text-anchor="middle" class="entity-title">Notifications</text>
  <rect x="960" y="145" width="240" height="105" class="entity-bg" rx="4"/>
  <text x="970" y="162" class="entity-attr pk">Id (PK)</text>
  <text x="970" y="177" class="entity-attr fk">UserId (FK)</text>
  <text x="970" y="192" class="entity-attr">Title, Message</text>
  <text x="970" y="207" class="entity-attr">Type, IsRead</text>
  <text x="970" y="222" class="entity-attr">CreatedAt</text>
  
  <!-- Wishlists -->
  <rect x="1240" y="110" width="240" height="35" class="entity-box" rx="4"/>
  <text x="1360" y="132" text-anchor="middle" class="entity-title">Wishlists</text>
  <rect x="1240" y="145" width="240" height="90" class="entity-bg" rx="4"/>
  <text x="1250" y="162" class="entity-attr pk">Id (PK)</text>
  <text x="1250" y="177" class="entity-attr fk">UserId (FK)</text>
  <text x="1250" y="192" class="entity-attr fk">ProductId (FK)</text>
  <text x="1250" y="207" class="entity-attr">CreatedAt</text>
  
  <!-- User Relationships -->
  <path d="M 360,215 L 400,215" class="relationship" marker-end="url(#arrowhead)"/>
  <text x="370" y="210" class="relationship-label">1:N</text>
  
  <path d="M 360,180 L 380,180 L 380,90 L 660,90 L 660,145" class="relationship" marker-end="url(#arrowhead)"/>
  <text x="510" y="85" class="relationship-label">1:N</text>
  
  <path d="M 360,195 L 390,195 L 390,85 L 940,85 L 940,180 L 960,180" class="relationship" marker-end="url(#arrowhead)"/>
  <text x="640" y="80" class="relationship-label">1:N</text>
  
  <path d="M 360,210 L 370,210 L 370,75 L 1220,75 L 1220,177 L 1240,177" class="relationship" marker-end="url(#arrowhead)"/>
  <text x="780" y="70" class="relationship-label">1:N</text>
  
  <!-- ROW 2: PRODUCTS & CATEGORIES -->
  <text x="80" y="335" class="section-title">PRODUCTS AND CATEGORIES</text>
  
  <!-- Categories -->
  <rect x="80" y="350" width="240" height="35" class="entity-box" rx="4"/>
  <text x="200" y="372" text-anchor="middle" class="entity-title">Categories</text>
  <rect x="80" y="385" width="240" height="135" class="entity-bg" rx="4"/>
  <text x="90" y="402" class="entity-attr pk">Id (PK)</text>
  <text x="90" y="417" class="entity-attr">Name, Slug</text>
  <text x="90" y="432" class="entity-attr">Description</text>
  <text x="90" y="447" class="entity-attr">ImageUrl</text>
  <text x="90" y="462" class="entity-attr fk">ParentId (FK)</text>
  <text x="90" y="477" class="entity-attr">IsActive</text>
  <text x="90" y="492" class="entity-attr">SortOrder</text>
  
  <!-- Brands -->
  <rect x="360" y="350" width="220" height="35" class="entity-box" rx="4"/>
  <text x="470" y="372" text-anchor="middle" class="entity-title">Brands</text>
  <rect x="360" y="385" width="220" height="105" class="entity-bg" rx="4"/>
  <text x="370" y="402" class="entity-attr pk">Id (PK)</text>
  <text x="370" y="417" class="entity-attr">Name, Slug</text>
  <text x="370" y="432" class="entity-attr">LogoUrl</text>
  <text x="370" y="447" class="entity-attr">Website</text>
  <text x="370" y="462" class="entity-attr">IsActive</text>
  
  <!-- Products -->
  <rect x="620" y="350" width="280" height="35" class="entity-box" rx="4"/>
  <text x="760" y="372" text-anchor="middle" class="entity-title">Products</text>
  <rect x="620" y="385" width="280" height="195" class="entity-bg" rx="4"/>
  <text x="630" y="402" class="entity-attr pk">Id (PK)</text>
  <text x="630" y="417" class="entity-attr">Name, Slug, SKU</text>
  <text x="630" y="432" class="entity-attr">Price, SalePrice</text>
  <text x="630" y="447" class="entity-attr">StockQuantity</text>
  <text x="630" y="462" class="entity-attr fk">CategoryId (FK)</text>
  <text x="630" y="477" class="entity-attr fk">BrandId (FK)</text>
  <text x="630" y="492" class="entity-attr">FeaturedImageUrl</text>
  <text x="630" y="507" class="entity-attr">IsFeatured</text>
  <text x="630" y="522" class="entity-attr">Rating</text>
  <text x="630" y="537" class="entity-attr">ReviewCount</text>
  <text x="630" y="552" class="entity-attr">CreatedAt</text>
  
  <!-- ProductImages -->
  <rect x="940" y="350" width="240" height="35" class="entity-box" rx="4"/>
  <text x="1060" y="372" text-anchor="middle" class="entity-title">ProductImages</text>
  <rect x="940" y="385" width="240" height="105" class="entity-bg" rx="4"/>
  <text x="950" y="402" class="entity-attr pk">Id (PK)</text>
  <text x="950" y="417" class="entity-attr fk">ProductId (FK)</text>
  <text x="950" y="432" class="entity-attr">ImageUrl</text>
  <text x="950" y="447" class="entity-attr">IsPrimary</text>
  <text x="950" y="462" class="entity-attr">SortOrder</text>
  
  <!-- ProductReviews -->
  <rect x="1220" y="350" width="240" height="35" class="entity-box" rx="4"/>
  <text x="1340" y="372" text-anchor="middle" class="entity-title">ProductReviews</text>
  <rect x="1220" y="385" width="240" height="105" class="entity-bg" rx="4"/>
  <text x="1230" y="402" class="entity-attr pk">Id (PK)</text>
  <text x="1230" y="417" class="entity-attr fk">ProductId (FK)</text>
  <text x="1230" y="432" class="entity-attr fk">UserId (FK)</text>
  <text x="1230" y="447" class="entity-attr">Rating, Comment</text>
  <text x="1230" y="462" class="entity-attr">IsApproved</text>
  
  <!-- Product Relationships -->
  <path d="M 320,440 L 350,440 L 350,320 L 600,320 L 600,462 L 620,462" class="relationship" marker-end="url(#arrowhead)"/>
  <text x="450" y="315" class="relationship-label">1:N</text>
  
  <path d="M 580,425 L 620,425" class="relationship" marker-end="url(#arrowhead)"/>
  <text x="590" y="420" class="relationship-label">1:N</text>
  
  <path d="M 900,437 L 940,437" class="relationship" marker-end="url(#arrowhead)"/>
  <text x="910" y="432" class="relationship-label">1:N</text>
  
  <path d="M 900,470 L 920,470 L 920,610 L 1340,610 L 1340,490" class="relationship" marker-end="url(#arrowhead)"/>
  <text x="1100" y="605" class="relationship-label">1:N</text>
  
  <path d="M 360,220 L 50,220 L 50,417 L 1230,417" class="relationship" marker-end="url(#arrowhead)"/>
  <text x="55" y="320" class="relationship-label">User</text>
  
  <path d="M 1360,235 L 1360,290 L 1500,290 L 1500,390 L 1460,390" class="relationship" marker-end="url(#arrowhead)"/>
  <text x="1505" y="340" class="relationship-label">M:N</text>
  
  <!-- ROW 3: ORDERS & INVENTORY -->
  <text x="80" y="645" class="section-title">ORDERS AND PAYMENTS</text>
  
  <!-- Orders -->
  <rect x="80" y="660" width="280" height="35" class="entity-box" rx="4"/>
  <text x="220" y="682" text-anchor="middle" class="entity-title">Orders</text>
  <rect x="80" y="695" width="280" height="195" class="entity-bg" rx="4"/>
  <text x="90" y="712" class="entity-attr pk">Id (PK)</text>
  <text x="90" y="727" class="entity-attr">OrderNumber</text>
  <text x="90" y="742" class="entity-attr fk">UserId (FK)</text>
  <text x="90" y="757" class="entity-attr">Status</text>
  <text x="90" y="772" class="entity-attr">TotalAmount</text>
  <text x="90" y="787" class="entity-attr">ShippingFee, Tax</text>
  <text x="90" y="802" class="entity-attr">DiscountAmount</text>
  <text x="90" y="817" class="entity-attr">PaymentMethod</text>
  <text x="90" y="832" class="entity-attr">PaymentStatus</text>
  <text x="90" y="847" class="entity-attr">ShippingAddress</text>
  <text x="90" y="862" class="entity-attr">CreatedAt</text>
  
  <!-- OrderItems -->
  <rect x="400" y="660" width="260" height="35" class="entity-box" rx="4"/>
  <text x="530" y="682" text-anchor="middle" class="entity-title">OrderItems</text>
  <rect x="400" y="695" width="260" height="135" class="entity-bg" rx="4"/>
  <text x="410" y="712" class="entity-attr pk">Id (PK)</text>
  <text x="410" y="727" class="entity-attr fk">OrderId (FK)</text>
  <text x="410" y="742" class="entity-attr fk">ProductId (FK)</text>
  <text x="410" y="757" class="entity-attr">Quantity</text>
  <text x="410" y="772" class="entity-attr">UnitPrice</text>
  <text x="410" y="787" class="entity-attr">TotalPrice</text>
  <text x="410" y="802" class="entity-attr">ProductName</text>
  
  <!-- ShoppingCartItems -->
  <rect x="700" y="660" width="260" height="35" class="entity-box" rx="4"/>
  <text x="830" y="682" text-anchor="middle" class="entity-title">ShoppingCartItems</text>
  <rect x="700" y="695" width="260" height="120" class="entity-bg" rx="4"/>
  <text x="710" y="712" class="entity-attr pk">Id (PK)</text>
  <text x="710" y="727" class="entity-attr fk">UserId (FK)</text>
  <text x="710" y="742" class="entity-attr fk">ProductId (FK)</text>
  <text x="710" y="757" class="entity-attr">Quantity</text>
  <text x="710" y="772" class="entity-attr">Size, Color</text>
  <text x="710" y="787" class="entity-attr">Price</text>
  
  <!-- Payments -->
  <rect x="1000" y="660" width="260" height="35" class="entity-box" rx="4"/>
  <text x="1130" y="682" text-anchor="middle" class="entity-title">Payments</text>
  <rect x="1000" y="695" width="260" height="135" class="entity-bg" rx="4"/>
  <text x="1010" y="712" class="entity-attr pk">Id (PK)</text>
  <text x="1010" y="727" class="entity-attr fk">OrderId (FK)</text>
  <text x="1010" y="742" class="entity-attr">PaymentMethod</text>
  <text x="1010" y="757" class="entity-attr">Status</text>
  <text x="1010" y="772" class="entity-attr">Amount</text>
  <text x="1010" y="787" class="entity-attr">TransactionId</text>
  <text x="1010" y="802" class="entity-attr">ProcessedAt</text>
  
  <!-- InventoryItems -->
  <rect x="1300" y="660" width="260" height="35" class="entity-box" rx="4"/>
  <text x="1430" y="682" text-anchor="middle" class="entity-title">InventoryItems</text>
  <rect x="1300" y="695" width="260" height="120" class="entity-bg" rx="4"/>
  <text x="1310" y="712" class="entity-attr pk">Id (PK)</text>
  <text x="1310" y="727" class="entity-attr fk">ProductId (FK)</text>
  <text x="1310" y="742" class="entity-attr">QuantityOnHand</text>
  <text x="1310" y="757" class="entity-attr">QuantityReserved</text>
  <text x="1310" y="772" class="entity-attr">QuantityAvailable</text>
  <text x="1310" y="787" class="entity-attr">CostPrice</text>
  
  <!-- Order Relationships -->
  <path d="M 360,762 L 400,762" class="relationship" marker-end="url(#arrowhead)"/>
  <text x="370" y="757" class="relationship-label">1:N</text>
  
  <path d="M 220,295 L 220,320 L 60,320 L 60,742 L 80,742" class="relationship" marker-end="url(#arrowhead)"/>
  <text x="40" y="520" class="relationship-label">1:N</text>
  
  <path d="M 520,295 L 520,320 L 1590,320 L 1590,727 L 1560,727" class="relationship" marker-end="url(#arrowhead)"/>
  <text x="1595" y="520" class="relationship-label">User</text>
  
  <path d="M 760,580 L 760,620 L 530,620 L 530,695" class="relationship" marker-end="url(#arrowhead)"/>
  <text x="540" y="640" class="relationship-label">1:N</text>
  
  <path d="M 760,580 L 760,620 L 830,620 L 830,695" class="relationship" marker-end="url(#arrowhead)"/>
  <text x="835" y="640" class="relationship-label">1:N</text>
  
  <path d="M 360,787 L 380,787 L 380,630 L 980,630 L 980,750 L 1000,750" class="relationship" marker-end="url(#arrowhead)"/>
  <text x="670" y="625" class="relationship-label">1:N</text>
  
  <path d="M 760,580 L 760,600 L 1620,600 L 1620,727 L 1560,727" class="relationship" marker-end="url(#arrowhead)"/>
  <text x="1625" y="660" class="relationship-label">1:1</text>
  
  <!-- ROW 4: COUPONS, BLOG & STORES -->
  <text x="80" y="955" class="section-title">COUPONS AND PROMOTIONS</text>
  
  <!-- Coupons -->
  <rect x="80" y="970" width="260" height="35" class="entity-box" rx="4"/>
  <text x="210" y="992" text-anchor="middle" class="entity-title">Coupons</text>
  <rect x="80" y="1005" width="260" height="150" class="entity-bg" rx="4"/>
  <text x="90" y="1022" class="entity-attr pk">Id (PK)</text>
  <text x="90" y="1037" class="entity-attr">Code, Name</text>
  <text x="90" y="1052" class="entity-attr">Type, Value</text>
  <text x="90" y="1067" class="entity-attr">MinOrderAmount</text>
  <text x="90" y="1082" class="entity-attr">UsageLimit</text>
  <text x="90" y="1097" class="entity-attr">StartDate</text>
  <text x="90" y="1112" class="entity-attr">EndDate</text>
  <text x="90" y="1127" class="entity-attr">IsActive</text>
  
  <!-- CouponUsages -->
  <rect x="380" y="970" width="240" height="35" class="entity-box" rx="4"/>
  <text x="500" y="992" text-anchor="middle" class="entity-title">CouponUsages</text>
  <rect x="380" y="1005" width="240" height="105" class="entity-bg" rx="4"/>
  <text x="390" y="1022" class="entity-attr pk">Id (PK)</text>
  <text x="390" y="1037" class="entity-attr fk">CouponId (FK)</text>
  <text x="390" y="1052" class="entity-attr fk">UserId (FK)</text>
  <text x="390" y="1067" class="entity-attr fk">OrderId (FK)</text>
  <text x="390" y="1082" class="entity-attr">DiscountAmount</text>
  
  <path d="M 340,1057 L 380,1057" class="relationship" marker-end="url(#arrowhead)"/>
  <text x="350" y="1052" class="relationship-label">1:N</text>
  
  <!-- BLOG -->
  <text x="680" y="955" class="section-title">BLOG SYSTEM</text>
  
  <!-- BlogCategories -->
  <rect x="680" y="970" width="220" height="35" class="entity-box" rx="4"/>
  <text x="790" y="992" text-anchor="middle" class="entity-title">BlogCategories</text>
  <rect x="680" y="1005" width="220" height="105" class="entity-bg" rx="4"/>
  <text x="690" y="1022" class="entity-attr pk">Id (PK)</text>
  <text x="690" y="1037" class="entity-attr">Name, Slug</text>
  <text x="690" y="1052" class="entity-attr">Description</text>
  <text x="690" y="1067" class="entity-attr">IsActive</text>
  <text x="690" y="1082" class="entity-attr">SortOrder</text>
  
  <!-- BlogPosts -->
  <rect x="940" y="970" width="240" height="35" class="entity-box" rx="4"/>
  <text x="1060" y="992" text-anchor="middle" class="entity-title">BlogPosts</text>
  <rect x="940" y="1005" width="240" height="150" class="entity-bg" rx="4"/>
  <text x="950" y="1022" class="entity-attr pk">Id (PK)</text>
  <text x="950" y="1037" class="entity-attr">Title, Slug</text>
  <text x="950" y="1052" class="entity-attr">Content</text>
  <text x="950" y="1067" class="entity-attr fk">CategoryId (FK)</text>
  <text x="950" y="1082" class="entity-attr fk">AuthorId (FK)</text>
  <text x="950" y="1097" class="entity-attr">Status</text>
  <text x="950" y="1112" class="entity-attr">ViewCount</text>
  <text x="950" y="1127" class="entity-attr">PublishedAt</text>
  
  <path d="M 900,1042 L 940,1042" class="relationship" marker-end="url(#arrowhead)"/>
  <text x="910" y="1037" class="relationship-label">1:N</text>
  
  <path d="M 220,295 L 40,295 L 40,1082 L 940,1082" class="relationship" marker-end="url(#arrowhead)"/>
  <text x="30" y="690" class="relationship-label">Author</text>
  
  <!-- STORES -->
  <text x="1240" y="955" class="section-title">MARKETPLACE</text>
  
  <!-- Stores -->
  <rect x="1240" y="970" width="220" height="35" class="entity-box" rx="4"/>
  <text x="1350" y="992" text-anchor="middle" class="entity-title">Stores</text>
  <rect x="1240" y="1005" width="220" height="120" class="entity-bg" rx="4"/>
  <text x="1250" y="1022" class="entity-attr pk">Id (PK)</text>
  <text x="1250" y="1037" class="entity-attr">Name, Slug</text>
  <text x="1250" y="1052" class="entity-attr">Description</text>
  <text x="1250" y="1067" class="entity-attr">LogoUrl</text>
  <text x="1250" y="1082" class="entity-attr">Email</text>
  <text x="1250" y="1097" class="entity-attr">IsActive</text>
  
  <!-- SellerStores -->
  <rect x="1500" y="970" width="220" height="35" class="entity-box" rx="4"/>
  <text x="1610" y="992" text-anchor="middle" class="entity-title">SellerStores</text>
  <rect x="1500" y="1005" width="220" height="90" class="entity-bg" rx="4"/>
  <text x="1510" y="1022" class="entity-attr pk">Id (PK)</text>
  <text x="1510" y="1037" class="entity-attr fk">UserId (FK)</text>
  <text x="1510" y="1052" class="entity-attr fk">StoreId (FK)</text>
  <text x="1510" y="1067" class="entity-attr">Role</text>
  <text x="1510" y="1082" class="entity-attr">JoinedAt</text>
  
  <path d="M 1460,1050 L 1500,1050" class="relationship" marker-end="url(#arrowhead)"/>
  <text x="1470" y="1045" class="relationship-label">1:N</text>
  
  <path d="M 220,295 L 20,295 L 20,1037 L 1500,1037" class="relationship" marker-end="url(#arrowhead)"/>
  <text x="760" y="1032" class="relationship-label">Sellers</text>
  
  <!-- ROW 5: ANALYTICS & SUPPORT -->
  <text x="80" y="1230" class="section-title">ANALYTICS</text>
  
  <!-- UserSessions -->
  <rect x="80" y="1245" width="260" height="35" class="entity-box" rx="4"/>
  <text x="210" y="1267" text-anchor="middle" class="entity-title">UserSessions</text>
  <rect x="80" y="1280" width="260" height="135" class="entity-bg" rx="4"/>
  <text x="90" y="1297" class="entity-attr pk">Id (PK)</text>
  <text x="90" y="1312" class="entity-attr">SessionId</text>
  <text x="90" y="1327" class="entity-attr fk">UserId (FK)</text>
  <text x="90" y="1342" class="entity-attr">IpAddress</text>
  <text x="90" y="1357" class="entity-attr">Device, Browser</text>
  <text x="90" y="1372" class="entity-attr">StartedAt</text>
  <text x="90" y="1387" class="entity-attr">Duration</text>
  
  <!-- PageViews -->
  <rect x="380" y="1245" width="240" height="35" class="entity-box" rx="4"/>
  <text x="500" y="1267" text-anchor="middle" class="entity-title">PageViews</text>
  <rect x="380" y="1280" width="240" height="120" class="entity-bg" rx="4"/>
  <text x="390" y="1297" class="entity-attr pk">Id (PK)</text>
  <text x="390" y="1312" class="entity-attr">SessionId</text>
  <text x="390" y="1327" class="entity-attr fk">UserId (FK)</text>
  <text x="390" y="1342" class="entity-attr">Page, Referrer</text>
  <text x="390" y="1357" class="entity-attr">Duration</text>
  <text x="390" y="1372" class="entity-attr">ViewedAt</text>
  
  <path d="M 340,1340 L 380,1340" class="relationship" marker-end="url(#arrowhead)"/>
  <text x="350" y="1335" class="relationship-label">1:N</text>
  
  <!-- AuditLogs -->
  <rect x="660" y="1245" width="240" height="35" class="entity-box" rx="4"/>
  <text x="780" y="1267" text-anchor="middle" class="entity-title">AuditLogs</text>
  <rect x="660" y="1280" width="240" height="105" class="entity-bg" rx="4"/>
  <text x="670" y="1297" class="entity-attr pk">Id (PK)</text>
  <text x="670" y="1312" class="entity-attr fk">UserId (FK)</text>
  <text x="670" y="1327" class="entity-attr">Action</text>
  <text x="670" y="1342" class="entity-attr">Details</text>
  <text x="670" y="1357" class="entity-attr">Timestamp</text>
  
  <!-- SUPPORT -->
  <text x="960" y="1230" class="section-title">SUPPORT SYSTEM</text>
  
  <!-- SupportTickets -->
  <rect x="960" y="1245" width="240" height="35" class="entity-box" rx="4"/>
  <text x="1080" y="1267" text-anchor="middle" class="entity-title">SupportTickets</text>
  <rect x="960" y="1280" width="240" height="135" class="entity-bg" rx="4"/>
  <text x="970" y="1297" class="entity-attr pk">Id (PK)</text>
  <text x="970" y="1312" class="entity-attr">TicketNumber</text>
  <text x="970" y="1327" class="entity-attr fk">UserId (FK)</text>
  <text x="970" y="1342" class="entity-attr">Subject</text>
  <text x="970" y="1357" class="entity-attr">Status, Priority</text>
  <text x="970" y="1372" class="entity-attr">CreatedAt</text>
  
  <!-- ContactMessages -->
  <rect x="1240" y="1245" width="240" height="35" class="entity-box" rx="4"/>
  <text x="1360" y="1267" text-anchor="middle" class="entity-title">ContactMessages</text>
  <rect x="1240" y="1280" width="240" height="120" class="entity-bg" rx="4"/>
  <text x="1250" y="1297" class="entity-attr pk">Id (PK)</text>
  <text x="1250" y="1312" class="entity-attr">Name, Email</text>
  <text x="1250" y="1327" class="entity-attr">Subject</text>
  <text x="1250" y="1342" class="entity-attr">Message</text>
  <text x="1250" y="1357" class="entity-attr">IsRead</text>
  <text x="1250" y="1372" class="entity-attr">CreatedAt</text>
  
  <!-- ROW 6: ADDITIONAL TABLES -->
  <text x="80" y="1480" class="section-title">ADDITIONAL FEATURES</text>
  
  <!-- ShippingMethods -->
  <rect x="80" y="1495" width="240" height="35" class="entity-box" rx="4"/>
  <text x="200" y="1517" text-anchor="middle" class="entity-title">ShippingMethods</text>
  <rect x="80" y="1530" width="240" height="120" class="entity-bg" rx="4"/>
  <text x="90" y="1547" class="entity-attr pk">Id (PK)</text>
  <text x="90" y="1562" class="entity-attr">Name, Code</text>
  <text x="90" y="1577" class="entity-attr">Cost</text>
  <text x="90" y="1592" class="entity-attr">MinOrderAmount</text>
  <text x="90" y="1607" class="entity-attr">EstimatedDays</text>
  <text x="90" y="1622" class="entity-attr">IsActive</text>
  
  <!-- PaymentTransactions -->
  <rect x="360" y="1495" width="260" height="35" class="entity-box" rx="4"/>
  <text x="490" y="1517" text-anchor="middle" class="entity-title">PaymentTransactions</text>
  <rect x="360" y="1530" width="260" height="150" class="entity-bg" rx="4"/>
  <text x="370" y="1547" class="entity-attr pk">Id (PK)</text>
  <text x="370" y="1562" class="entity-attr fk">OrderId (FK)</text>
  <text x="370" y="1577" class="entity-attr fk">UserId (FK)</text>
  <text x="370" y="1592" class="entity-attr fk">SellerId (FK)</text>
  <text x="370" y="1607" class="entity-attr">Amount</text>
  <text x="370" y="1622" class="entity-attr">PlatformFee</text>
  <text x="370" y="1637" class="entity-attr">SellerAmount</text>
  <text x="370" y="1652" class="entity-attr">Status</text>
  
  <!-- SystemConfigurations -->
  <rect x="660" y="1495" width="240" height="35" class="entity-box" rx="4"/>
  <text x="780" y="1517" text-anchor="middle" class="entity-title">SystemConfigs</text>
  <rect x="660" y="1530" width="240" height="105" class="entity-bg" rx="4"/>
  <text x="670" y="1547" class="entity-attr pk">Id (PK)</text>
  <text x="670" y="1562" class="entity-attr">Key, Value</text>
  <text x="670" y="1577" class="entity-attr">Category</text>
  <text x="670" y="1592" class="entity-attr">Description</text>
  <text x="670" y="1607" class="entity-attr">IsEditable</text>
  
  <!-- MarketingBanners -->
  <rect x="940" y="1495" width="240" height="35" class="entity-box" rx="4"/>
  <text x="1060" y="1517" text-anchor="middle" class="entity-title">MarketingBanners</text>
  <rect x="940" y="1530" width="240" height="120" class="entity-bg" rx="4"/>
  <text x="950" y="1547" class="entity-attr pk">Id (PK)</text>
  <text x="950" y="1562" class="entity-attr">Title</text>
  <text x="950" y="1577" class="entity-attr">ImageUrl</text>
  <text x="950" y="1592" class="entity-attr">Position</text>
  <text x="950" y="1607" class="entity-attr">StartDate</text>
  <text x="950" y="1622" class="entity-attr">IsActive</text>
  
  <!-- ProductApprovals -->
  <rect x="1220" y="1495" width="240" height="35" class="entity-box" rx="4"/>
  <text x="1340" y="1517" text-anchor="middle" class="entity-title">ProductApprovals</text>
  <rect x="1220" y="1530" width="240" height="120" class="entity-bg" rx="4"/>
  <text x="1230" y="1547" class="entity-attr pk">Id (PK)</text>
  <text x="1230" y="1562" class="entity-attr fk">ProductId (FK)</text>
  <text x="1230" y="1577" class="entity-attr fk">SellerId (FK)</text>
  <text x="1230" y="1592" class="entity-attr">Status</text>
  <text x="1230" y="1607" class="entity-attr">ReviewComments</text>
  <text x="1230" y="1622" class="entity-attr">SubmittedAt</text>
  
  <!-- StockMovements -->
  <rect x="1500" y="1495" width="240" height="35" class="entity-box" rx="4"/>
  <text x="1620" y="1517" text-anchor="middle" class="entity-title">StockMovements</text>
  <rect x="1500" y="1530" width="240" height="105" class="entity-bg" rx="4"/>
  <text x="1510" y="1547" class="entity-attr pk">Id (PK)</text>
  <text x="1510" y="1562" class="entity-attr fk">ProductId (FK)</text>
  <text x="1510" y="1577" class="entity-attr">MovementType</text>
  <text x="1510" y="1592" class="entity-attr">Quantity</text>
  <text x="1510" y="1607" class="entity-attr">CreatedAt</text>
  
  <path d="M 760,580 L 760,590 L 1750,590 L 1750,1577 L 1740,1577" class="relationship" marker-end="url(#arrowhead)"/>
  <text x="1755" y="1080" class="relationship-label">1:N</text>
  
  <path d="M 760,580 L 760,590 L 1770,590 L 1770,1562 L 1460,1562" class="relationship" marker-end="url(#arrowhead)"/>
  <text x="1775" y="1080" class="relationship-label">1:N</text>
  
  <!-- Legend -->
  <rect x="80" y="1750" width="600" height="180" fill="white" stroke="#333" stroke-width="2" rx="5"/>
  <text x="100" y="1780" style="fill: #333; font-family: Arial, sans-serif; font-size: 18px; font-weight: bold;">LEGEND</text>
  
  <rect x="100" y="1800" width="25" height="18" class="entity-box"/>
  <text x="135" y="1813" style="fill: #333; font-family: Arial, sans-serif; font-size: 13px;">Entity Header</text>
  
  <rect x="100" y="1828" width="25" height="18" class="entity-bg"/>
  <text x="135" y="1841" style="fill: #333; font-family: Arial, sans-serif; font-size: 13px;">Entity Body</text>
  
  <text x="100" y="1863" class="entity-attr pk">PK:</text>
  <text x="135" y="1863" style="fill: #333; font-family: Arial, sans-serif; font-size: 13px;">Primary Key</text>
  
  <text x="100" y="1883" class="entity-attr fk">FK:</text>
  <text x="135" y="1883" style="fill: #333; font-family: Arial, sans-serif; font-size: 13px;">Foreign Key</text>
  
  <line x1="100" y1="1900" x2="130" y2="1900" class="relationship" marker-end="url(#arrowhead)"/>
  <text x="140" y="1905" style="fill: #333; font-family: Arial, sans-serif; font-size: 13px;">One-to-Many (1:N)</text>
  
  <!-- Database Statistics -->
  <rect x="720" y="1750" width="520" height="180" fill="#F0F8FF" stroke="#333" stroke-width="2" rx="5"/>
  <text x="740" y="1780" style="fill: #333; font-family: Arial, sans-serif; font-size: 18px; font-weight: bold;">DATABASE STATISTICS</text>
  
  <text x="740" y="1808" style="fill: #333; font-family: Arial, sans-serif; font-size: 13px;">Total Tables: 50+ entities</text>
  <text x="740" y="1828" style="fill: #333; font-family: Arial, sans-serif; font-size: 13px;">Database: PostgreSQL 15</text>
  <text x="740" y="1848" style="fill: #333; font-family: Arial, sans-serif; font-size: 13px;">Framework: ASP.NET Core 9.0</text>
  <text x="740" y="1868" style="fill: #333; font-family: Arial, sans-serif; font-size: 13px;">ORM: Entity Framework Core 9.0</text>
  <text x="740" y="1888" style="fill: #333; font-family: Arial, sans-serif; font-size: 13px;">Primary Key Type: UUID (GUID)</text>
  <text x="740" y="1908" style="fill: #333; font-family: Arial, sans-serif; font-size: 13px;">Multi-vendor marketplace platform</text>
  
  <!-- Key Features -->
  <rect x="1280" y="1750" width="580" height="180" fill="#FFF8DC" stroke="#333" stroke-width="2" rx="5"/>
  <text x="1300" y="1780" style="fill: #333; font-family: Arial, sans-serif; font-size: 18px; font-weight: bold;">KEY FEATURES</text>
  
  <text x="1300" y="1805" style="fill: #333; font-family: Arial, sans-serif; font-size: 12px;">Multi-vendor marketplace with seller management</text>
  <text x="1300" y="1823" style="fill: #333; font-family: Arial, sans-serif; font-size: 12px;">Complete e-commerce: Products, Orders, Payments</text>
  <text x="1300" y="1841" style="fill: #333; font-family: Arial, sans-serif; font-size: 12px;">Security: Authentication, Authorization, Audit logs</text>
  <text x="1300" y="1859" style="fill: #333; font-family: Arial, sans-serif; font-size: 12px;">Inventory management with stock tracking</text>
  <text x="1300" y="1877" style="fill: #333; font-family: Arial, sans-serif; font-size: 12px;">Marketing: Coupons, Promotions, Banners</text>
  <text x="1300" y="1895" style="fill: #333; font-family: Arial, sans-serif; font-size: 12px;">Analytics: Sessions, Page views, Sales reports</text>
  <text x="1300" y="1913" style="fill: #333; font-family: Arial, sans-serif; font-size: 12px;">Support: Tickets, Disputes, Contact messages</text>
  
  <!-- Footer -->
  <text x="1700" y="2010" text-anchor="middle" style="fill: #666; font-family: Arial, sans-serif; font-size: 12px;">
    Generated: October 25, 2025 | John Henry Fashion E-Commerce Platform
  </text>
  <text x="1700" y="2030" text-anchor="middle" style="fill: #666; font-family: Arial, sans-serif; font-size: 12px;">
    Copyright 2025 John Henry Fashion | All Rights Reserved
  </text>
</svg>