<svg xmlns="http://www.w3.org/2000/svg" viewBox="0 0 1800 1200" width="1800" height="1200">
  <defs>
    <style>
      .node-box { fill: white; stroke: #4A90E2; stroke-width: 2; }
      .node-text { fill: #2d3748; font-family: Arial, sans-serif; font-size: 12px; font-weight: 500; text-anchor: middle; }
      .root-box { fill: #4A90E2; stroke: #2E5C8A; stroke-width: 3; }
      .root-text { fill: white; font-family: Arial, sans-serif; font-size: 18px; font-weight: bold; text-anchor: middle; }
      .category-box { fill: white; stroke: #4A90E2; stroke-width: 2.5; }
      .category-text { fill: #4A90E2; font-family: Arial, sans-serif; font-size: 14px; font-weight: bold; text-anchor: middle; }
      .feature-box { fill: #E8F4F8; stroke: #4A90E2; stroke-width: 1.5; }
      .feature-text { fill: #2d3748; font-family: Arial, sans-serif; font-size: 11px; font-weight: 400; text-anchor: middle; }
      .connection { stroke: #999; stroke-width: 1.8; fill: none; }
    </style>
  </defs>
  
  <!-- Root Node - CENTER -->
  <rect x="810" y="570" width="180" height="60" rx="30" class="root-box"/>
  <text x="900" y="595" class="root-text">Hệ thống Website</text>
  <text x="900" y="615" class="root-text">John Henry</text>

  <!-- ============= TOP LEFT: CUSTOMER ============= -->
  <line x1="810" y1="585" x2="380" y2="280" class="connection"/>
  <rect x="280" y="250" width="200" height="60" rx="8" class="category-box"/>
  <text x="380" y="275" class="category-text">Chức năng cho</text>
  <text x="380" y="295" class="category-text">Khách hàng (Customer)</text>

  <!-- Shopping Experience -->
  <line x1="380" y1="250" x2="300" y2="190" class="connection"/>
  <rect x="225" y="165" width="150" height="50" rx="25" class="node-box"/>
  <text x="300" y="195" class="node-text">Trải nghiệm Mua sắm</text>

  <line x1="225" y1="190" x2="140" y2="120" class="connection"/>
  <rect x="40" y="105" width="200" height="30" rx="15" class="feature-box"/>
  <text x="140" y="125" class="feature-text">Tìm kiếm AND Lọc sản phẩm</text>

  <line x1="225" y1="190" x2="140" y2="160" class="connection"/>
  <rect x="30" y="145" width="220" height="30" rx="15" class="feature-box"/>
  <text x="140" y="165" class="feature-text">Quản lý Giỏ hàng AND Wishlist</text>

  <line x1="375" y1="190" x2="460" y2="120" class="connection"/>
  <rect x="380" y="105" width="160" height="30" rx="15" class="feature-box"/>
  <text x="460" y="125" class="feature-text">Quy trình Thanh toán</text>

  <line x1="375" y1="190" x2="460" y2="160" class="connection"/>
  <rect x="370" y="145" width="180" height="30" rx="15" class="feature-box"/>
  <text x="460" y="165" class="feature-text">Quản lý Đơn hàng Cá nhân</text>

  <line x1="375" y1="190" x2="530" y2="190" class="connection"/>
  <rect x="420" y="175" width="220" height="30" rx="15" class="feature-box"/>
  <text x="530" y="195" class="feature-text">Đánh giá AND Xếp hạng sản phẩm</text>

  <!-- Account Management -->
  <line x1="380" y1="250" x2="460" y2="320" class="connection"/>
  <rect x="395" y="295" width="130" height="50" rx="25" class="node-box"/>
  <text x="460" y="325" class="node-text">Quản lý Tài khoản</text>

  <line x1="395" y1="320" x2="310" y2="370" class="connection"/>
  <rect x="230" y="355" width="160" height="30" rx="15" class="feature-box"/>
  <text x="310" y="375" class="feature-text">Đăng ký AND Đăng nhập</text>

  <line x1="460" y1="345" x2="460" y2="385" class="connection"/>
  <rect x="390" y="385" width="140" height="30" rx="15" class="feature-box"/>
  <text x="460" y="405" class="feature-text">Quản lý Hồ sơ Cá nhân</text>

  <line x1="525" y1="320" x2="600" y2="370" class="connection"/>
  <rect x="550" y="355" width="100" height="30" rx="15" class="feature-box"/>
  <text x="600" y="375" class="feature-text">Quản lý Địa chỉ</text>

  <!-- ============= TOP RIGHT: SELLER ============= -->
  <line x1="990" y1="585" x2="1420" y2="280" class="connection"/>
  <rect x="1330" y="250" width="180" height="60" rx="8" class="category-box"/>
  <text x="1420" y="275" class="category-text">Chức năng cho</text>
  <text x="1420" y="295" class="category-text">Người bán (Seller)</text>

  <!-- Sales Dashboard -->
  <line x1="1420" y1="250" x2="1500" y2="190" class="connection"/>
  <rect x="1425" y="165" width="150" height="50" rx="25" class="node-box"/>
  <text x="1500" y="195" class="node-text">Bảng điều khiển Người bán</text>

  <line x1="1425" y1="190" x2="1340" y2="120" class="connection"/>
  <rect x="1230" y="105" width="220" height="30" rx="15" class="feature-box"/>
  <text x="1340" y="125" class="feature-text">Đăng ký AND Xác minh Tài khoản</text>

  <line x1="1425" y1="190" x2="1340" y2="160" class="connection"/>
  <rect x="1180" y="145" width="320" height="30" rx="15" class="feature-box"/>
  <text x="1340" y="165" class="feature-text">Quản lý Sản phẩm (Đăng bán, cập nhật)</text>

  <line x1="1575" y1="190" x2="1660" y2="120" class="connection"/>
  <rect x="1560" y="105" width="200" height="30" rx="15" class="feature-box"/>
  <text x="1660" y="125" class="feature-text">Xử lý AND Vận chuyển Đơn hàng</text>

  <line x1="1575" y1="190" x2="1660" y2="160" class="connection"/>
  <rect x="1500" y="145" width="320" height="30" rx="15" class="feature-box"/>
  <text x="1660" y="165" class="feature-text">Quản lý Tài chính (Doanh thu, hoa hồng, thanh toán)</text>

  <line x1="1575" y1="190" x2="1660" y2="190" class="connection"/>
  <rect x="1570" y="175" width="180" height="30" rx="15" class="feature-box"/>
  <text x="1660" y="195" class="feature-text">Theo dõi Hiệu suất Bán hàng</text>

  <!-- ============= BOTTOM LEFT: ADMIN ============= -->
  <line x1="810" y1="630" x2="380" y2="860" class="connection"/>
  <rect x="300" y="830" width="160" height="60" rx="8" class="category-box"/>
  <text x="380" y="855" class="category-text">Chức năng Quản trị</text>
  <text x="380" y="875" class="category-text">(Admin)</text>

  <!-- Analytics -->
  <line x1="380" y1="830" x2="250" y2="760" class="connection"/>
  <rect x="175" y="735" width="150" height="50" rx="25" class="node-box"/>
  <text x="250" y="765" class="node-text">Phân tích AND Báo cáo</text>

  <line x1="175" y1="760" x2="100" y2="700" class="connection"/>
  <rect x="20" y="685" width="160" height="30" rx="15" class="feature-box"/>
  <text x="100" y="705" class="feature-text">Phân tích Doanh số AND Xu hướng</text>

  <line x1="175" y1="760" x2="100" y2="735" class="connection"/>
  <rect x="20" y="720" width="160" height="30" rx="15" class="feature-box"/>
  <text x="100" y="740" class="feature-text">Phân tích Hành vi Khách hàng</text>

  <line x1="325" y1="760" x2="400" y2="700" class="connection"/>
  <rect x="320" y="685" width="160" height="30" rx="15" class="feature-box"/>
  <text x="400" y="705" class="feature-text">Giám sát Hiệu suất Hệ thống</text>

  <line x1="325" y1="760" x2="400" y2="735" class="connection"/>
  <rect x="340" y="720" width="120" height="30" rx="15" class="feature-box"/>
  <text x="400" y="740" class="feature-text">Báo cáo Tùy chỉnh</text>

  <!-- CMS -->
  <line x1="300" y1="860" x2="180" y2="920" class="connection"/>
  <rect x="105" y="895" width="150" height="50" rx="25" class="node-box"/>
  <text x="180" y="925" class="node-text">Quản lý Nội dung (CMS)</text>

  <line x1="105" y1="920" x2="40" y2="970" class="connection"/>
  <rect x="20" y="955" width="100" height="30" rx="15" class="feature-box"/>
  <text x="70" y="975" class="feature-text">Quản lý Blog</text>

  <line x1="105" y1="920" x2="40" y2="1005" class="connection"/>
  <rect x="20" y="990" width="120" height="30" rx="15" class="feature-box"/>
  <text x="80" y="1010" class="feature-text">Quản lý Mẫu Email</text>

  <line x1="255" y1="920" x2="320" y2="970" class="connection"/>
  <rect x="210" y="955" width="220" height="30" rx="15" class="feature-box"/>
  <text x="320" y="975" class="feature-text">Quản lý Trang tĩnh (Chính sách, Giới thiệu)</text>

  <line x1="255" y1="920" x2="320" y2="1005" class="connection"/>
  <rect x="270" y="990" width="100" height="30" rx="15" class="feature-box"/>
  <text x="320" y="1010" class="feature-text">Quản lý SEO</text>

  <!-- System Admin -->
  <line x1="380" y1="890" x2="520" y2="970" class="connection"/>
  <rect x="455" y="945" width="130" height="50" rx="25" class="node-box"/>
  <text x="520" y="975" class="node-text">Quản trị Hệ thống</text>

  <line x1="455" y1="970" x2="380" y2="1030" class="connection"/>
  <rect x="260" y="1015" width="240" height="30" rx="15" class="feature-box"/>
  <text x="380" y="1035" class="feature-text">Quản lý Người dùng AND Phân quyền</text>

  <line x1="455" y1="970" x2="380" y2="1065" class="connection"/>
  <rect x="260" y="1050" width="240" height="30" rx="15" class="feature-box"/>
  <text x="380" y="1070" class="feature-text">Giám sát An ninh AND Bảo mật</text>

  <line x1="585" y1="970" x2="660" y2="1030" class="connection"/>
  <rect x="560" y="1015" width="200" height="30" rx="15" class="feature-box"/>
  <text x="660" y="1035" class="feature-text">Cấu hình Hệ thống AND Tính năng</text>

  <line x1="585" y1="970" x2="660" y2="1065" class="connection"/>
  <rect x="540" y="1050" width="240" height="30" rx="15" class="feature-box"/>
  <text x="660" y="1070" class="feature-text">Ghi Log Kiểm toán (Audit Logging)</text>

  <!-- ============= BOTTOM RIGHT: SYSTEM MODULES ============= -->
  <line x1="990" y1="630" x2="1420" y2="860" class="connection"/>
  <rect x="1340" y="830" width="160" height="60" rx="8" class="category-box"/>
  <text x="1420" y="865" class="category-text">Module Hệ thống chung</text>

  <!-- Auth -->
  <line x1="1420" y1="830" x2="1500" y2="760" class="connection"/>
  <rect x="1425" y="735" width="150" height="50" rx="25" class="node-box"/>
  <text x="1500" y="765" class="node-text">Xác thực AND Phân quyền</text>

  <line x1="1425" y1="760" x2="1340" y2="700" class="connection"/>
  <rect x="1240" y="685" width="200" height="30" rx="15" class="feature-box"/>
  <text x="1340" y="705" class="feature-text">Xác thực bằng JWT</text>

  <line x1="1425" y1="760" x2="1340" y2="735" class="connection"/>
  <rect x="1200" y="720" width="280" height="30" rx="15" class="feature-box"/>
  <text x="1340" y="740" class="feature-text">Tích hợp Google OAuth 2.0</text>

  <line x1="1575" y1="760" x2="1660" y2="700" class="connection"/>
  <rect x="1560" y="685" width="200" height="30" rx="15" class="feature-box"/>
  <text x="1660" y="705" class="feature-text">Quản lý Vai trò (RBAC)</text>

  <line x1="1575" y1="760" x2="1660" y2="735" class="connection"/>
  <rect x="1560" y="720" width="200" height="30" rx="15" class="feature-box"/>
  <text x="1660" y="740" class="feature-text">Xác thực hai yếu tố (2FA)</text>

  <!-- Performance -->
  <line x1="1340" y1="860" x2="1220" y2="920" class="connection"/>
  <rect x="1145" y="895" width="150" height="50" rx="25" class="node-box"/>
  <text x="1220" y="925" class="node-text">Tối ưu hóa AND Hiệu năng</text>

  <line x1="1145" y1="920" x2="1060" y2="970" class="connection"/>
  <rect x="940" y="955" width="240" height="30" rx="15" class="feature-box"/>
  <text x="1060" y="975" class="feature-text">Caching (Redis AND Memory)</text>

  <line x1="1145" y1="920" x2="1060" y2="1005" class="connection"/>
  <rect x="960" y="990" width="200" height="30" rx="15" class="feature-box"/>
  <text x="1060" y="1010" class="feature-text">Nén Phản hồi (Gzip)</text>

  <line x1="1295" y1="920" x2="1380" y2="970" class="connection"/>
  <rect x="1280" y="955" width="200" height="30" rx="15" class="feature-box"/>
  <text x="1380" y="975" class="feature-text">Tối ưu Truy vấn CSDL</text>

  <!-- API -->
  <line x1="1420" y1="890" x2="1560" y2="970" class="connection"/>
  <rect x="1495" y="945" width="130" height="50" rx="25" class="node-box"/>
  <text x="1560" y="975" class="node-text">API AND Tích hợp</text>

  <line x1="1495" y1="970" x2="1420" y2="1030" class="connection"/>
  <rect x="1300" y="1015" width="240" height="30" rx="15" class="feature-box"/>
  <text x="1420" y="1035" class="feature-text">Cung cấp RESTful API</text>

  <line x1="1560" y1="995" x2="1560" y2="1045" class="connection"/>
  <rect x="1450" y="1045" width="220" height="30" rx="15" class="feature-box"/>
  <text x="1560" y="1065" class="feature-text">Tài liệu hóa API (Swagger)</text>

  <line x1="1625" y1="970" x2="1700" y2="1030" class="connection"/>
  <rect x="1580" y="1015" width="240" height="30" rx="15" class="feature-box"/>
  <text x="1700" y="1035" class="feature-text">Giới hạn Tần suất Truy cập (Rate Limiting)</text>

</svg>
